<?xml version="1.0" encoding="UTF-8" standalone="no"?>
<!DOCTYPE svg PUBLIC "-//W3C//DTD SVG 1.1//EN"
 "http://www.w3.org/Graphics/SVG/1.1/DTD/svg11.dtd">
<!-- Generated by graphviz version 2.47.3 (20210619.1520)
 -->
<!-- Title: dependencies Pages: 1 -->
<svg width="170pt" height="174pt"
 viewBox="0.00 0.00 170.00 173.80" xmlns="http://www.w3.org/2000/svg" xmlns:xlink="http://www.w3.org/1999/xlink">
<g id="graph0" class="graph" transform="scale(1 1) rotate(0) translate(4 169.8)">
<title>dependencies</title>
<polygon fill="white" stroke="transparent" points="-4,4 -4,-169.8 166,-169.8 166,4 -4,4"/>
<text text-anchor="middle" x="81" y="-8.2" font-family="sans-serif" font-size="14.00">dependencies</text>
<g id="clust1" class="cluster">
<title>cluster_PresentationModule</title>
<polygon fill="none" stroke="black" stroke-dasharray="1,5" points="8,-32.8 8,-157.8 154,-157.8 154,-32.8 8,-32.8"/>
</g>
<g id="clust3" class="cluster">
<title>cluster_PresentationModule_imports</title>
<polygon fill="none" stroke="black" points="16,-40.8 16,-92.8 146,-92.8 146,-40.8 16,-40.8"/>
</g>
<!-- UseCasesModule -->
<g id="node1" class="node">
<title>UseCasesModule</title>
<polygon fill="#8dd3c7" stroke="black" points="137.97,-84.8 134.97,-88.8 113.97,-88.8 110.97,-84.8 24.03,-84.8 24.03,-48.8 137.97,-48.8 137.97,-84.8"/>
<text text-anchor="middle" x="81" y="-62.6" font-family="Times,serif" font-size="14.00">UseCasesModule</text>
</g>
<!-- PresentationModule -->
<g id="node2" class="node">
<title>PresentationModule</title>
<polygon fill="#8dd3c7" stroke="black" points="145.25,-149.8 142.25,-153.8 121.25,-153.8 118.25,-149.8 16.75,-149.8 16.75,-113.8 145.25,-113.8 145.25,-149.8"/>
<text text-anchor="middle" x="81" y="-127.6" font-family="Times,serif" font-size="14.00">PresentationModule</text>
</g>
<!-- UseCasesModule&#45;&gt;PresentationModule -->
<g id="edge1" class="edge">
<title>UseCasesModule&#45;&gt;PresentationModule</title>
<path fill="none" stroke="black" d="M81,-84.91C81,-84.91 81,-103.79 81,-103.79"/>
<polygon fill="black" stroke="black" points="77.5,-103.79 81,-113.79 84.5,-103.79 77.5,-103.79"/>
</g>
</g>
</svg>
