<?xml version="1.0" encoding="UTF-8" standalone="no"?>
<!DOCTYPE svg PUBLIC "-//W3C//DTD SVG 1.1//EN"
 "http://www.w3.org/Graphics/SVG/1.1/DTD/svg11.dtd">
<!-- Generated by graphviz version 2.47.3 (20210619.1520)
 -->
<!-- Title: dependencies Pages: 1 -->
<svg width="407pt" height="247pt"
 viewBox="0.00 0.00 407.00 246.80" xmlns="http://www.w3.org/2000/svg" xmlns:xlink="http://www.w3.org/1999/xlink">
<g id="graph0" class="graph" transform="scale(1 1) rotate(0) translate(4 242.8)">
<title>dependencies</title>
<polygon fill="white" stroke="transparent" points="-4,4 -4,-242.8 403,-242.8 403,4 -4,4"/>
<text text-anchor="middle" x="199.5" y="-8.2" font-family="sans-serif" font-size="14.00">dependencies</text>
<g id="clust1" class="cluster">
<title>cluster_UseCasesModule</title>
<polygon fill="none" stroke="black" stroke-dasharray="1,5" points="8,-32.8 8,-230.8 391,-230.8 391,-32.8 8,-32.8"/>
</g>
<g id="clust3" class="cluster">
<title>cluster_UseCasesModule_imports</title>
<polygon fill="none" stroke="black" points="166,-40.8 166,-92.8 383,-92.8 383,-40.8 166,-40.8"/>
</g>
<g id="clust4" class="cluster">
<title>cluster_UseCasesModule_exports</title>
<polygon fill="none" stroke="black" points="165,-170.8 165,-222.8 275,-222.8 275,-170.8 165,-170.8"/>
</g>
<g id="clust6" class="cluster">
<title>cluster_UseCasesModule_providers</title>
<polygon fill="none" stroke="black" points="16,-40.8 16,-92.8 158,-92.8 158,-40.8 16,-40.8"/>
</g>
<!-- RolesModule -->
<g id="node1" class="node">
<title>RolesModule</title>
<polygon fill="#8dd3c7" stroke="black" points="374.94,-84.8 371.94,-88.8 350.94,-88.8 347.94,-84.8 283.06,-84.8 283.06,-48.8 374.94,-48.8 374.94,-84.8"/>
<text text-anchor="middle" x="329" y="-62.6" font-family="Times,serif" font-size="14.00">RolesModule</text>
</g>
<!-- UseCasesModule -->
<g id="node3" class="node">
<title>UseCasesModule</title>
<polygon fill="#8dd3c7" stroke="black" points="276.97,-149.8 273.97,-153.8 252.97,-153.8 249.97,-149.8 163.03,-149.8 163.03,-113.8 276.97,-113.8 276.97,-149.8"/>
<text text-anchor="middle" x="220" y="-127.6" font-family="Times,serif" font-size="14.00">UseCasesModule</text>
</g>
<!-- RolesModule&#45;&gt;UseCasesModule -->
<g id="edge1" class="edge">
<title>RolesModule&#45;&gt;UseCasesModule</title>
<path fill="none" stroke="black" d="M283.01,-66.8C276.17,-66.8 271.35,-66.8 271.35,-66.8 271.35,-66.8 271.35,-103.69 271.35,-103.69"/>
<polygon fill="black" stroke="black" points="267.85,-103.69 271.35,-113.69 274.85,-103.69 267.85,-103.69"/>
</g>
<!-- UsersModule -->
<g id="node2" class="node">
<title>UsersModule</title>
<polygon fill="#8dd3c7" stroke="black" points="265.92,-84.8 262.92,-88.8 241.92,-88.8 238.92,-84.8 174.08,-84.8 174.08,-48.8 265.92,-48.8 265.92,-84.8"/>
<text text-anchor="middle" x="220" y="-62.6" font-family="Times,serif" font-size="14.00">UsersModule</text>
</g>
<!-- UsersModule&#45;&gt;UseCasesModule -->
<g id="edge2" class="edge">
<title>UsersModule&#45;&gt;UseCasesModule</title>
<path fill="none" stroke="black" d="M220,-84.91C220,-84.91 220,-103.79 220,-103.79"/>
<polygon fill="black" stroke="black" points="216.5,-103.79 220,-113.79 223.5,-103.79 216.5,-103.79"/>
</g>
<!-- UserUseCase  -->
<g id="node4" class="node">
<title>UserUseCase </title>
<polygon fill="#fb8072" stroke="black" points="267.4,-214.8 172.6,-214.8 172.6,-178.8 267.4,-178.8 267.4,-214.8"/>
<text text-anchor="middle" x="220" y="-192.6" font-family="Times,serif" font-size="14.00">UserUseCase </text>
</g>
<!-- UseCasesModule&#45;&gt;UserUseCase  -->
<g id="edge3" class="edge">
<title>UseCasesModule&#45;&gt;UserUseCase </title>
<path fill="none" stroke="black" stroke-dasharray="5,2" d="M220,-149.91C220,-149.91 220,-168.79 220,-168.79"/>
<polygon fill="black" stroke="black" points="216.5,-168.79 220,-178.79 223.5,-168.79 216.5,-168.79"/>
</g>
<!-- UserUseCase -->
<g id="node5" class="node">
<title>UserUseCase</title>
<ellipse fill="#fdb462" stroke="black" cx="87" cy="-66.8" rx="63.1" ry="18"/>
<text text-anchor="middle" x="87" y="-62.6" font-family="Times,serif" font-size="14.00">UserUseCase</text>
</g>
<!-- UserUseCase&#45;&gt;UseCasesModule -->
<g id="edge4" class="edge">
<title>UserUseCase&#45;&gt;UseCasesModule</title>
<path fill="none" stroke="black" d="M150.12,-66.8C160.88,-66.8 168.65,-66.8 168.65,-66.8 168.65,-66.8 168.65,-103.69 168.65,-103.69"/>
<polygon fill="black" stroke="black" points="165.15,-103.69 168.65,-113.69 172.15,-103.69 165.15,-103.69"/>
</g>
</g>
</svg>
